<svg width="200" height="150" viewBox="0 0 200 150" xmlns="http://www.w3.org/2000/svg">
  <!-- Fondo -->
  <rect width="200" height="150" fill="#FFF" rx="10"/>

  <!-- Sujetador/Corpiño -->
  <path d="M60 60 Q100 45 140 60 L140 80 Q100 65 60 80 Z" fill="#FFB6C1" stroke="#000" stroke-width="2"/>
  <path d="M60 60 Q100 45 140 60 L140 80 Q100 65 60 80 Z" fill="none" stroke="#FF69B4" stroke-width="1"/>

  <!-- Tirantes del sujetador -->
  <line x1="60" y1="60" x2="50" y2="50" stroke="#000" stroke-width="2"/>
  <line x1="140" y1="60" x2="150" y2="50" stroke="#000" stroke-width="2"/>

  <!-- Braguitas -->
  <ellipse cx="100" cy="110" rx="35" ry="20" fill="#FFB6C1" stroke="#000" stroke-width="2"/>
  <path d="M65 110 Q100 95 135 110 L135 130 Q100 115 65 130 Z" fill="#FF69B4" stroke="#000" stroke-width="1"/>

  <!-- Detalles de encaje -->
  <circle cx="85" cy="70" r="2" fill="#FF69B4"/>
  <circle cx="115" cy="70" r="2" fill="#FF69B4"/>
  <circle cx="85" cy="100" r="2" fill="#FF69B4"/>
  <circle cx="115" cy="100" r="2" fill="#FF69B4"/>
</svg>
